<svg width="24" height="24" viewBox="0 0 24 24" fill="none" xmlns="http://www.w3.org/2000/svg">
<g clip-path="url(#clip0_138_7493)">
<path d="M23.2711 9.41882C22.3683 7.94054 21.2296 6.62007 19.9001 5.50982L22.7001 2.70982C22.8822 2.52122 22.983 2.26861 22.9807 2.00642C22.9784 1.74422 22.8733 1.49341 22.6879 1.308C22.5025 1.12259 22.2516 1.01742 21.9895 1.01514C21.7273 1.01287 21.4747 1.11366 21.2861 1.29582L18.2411 4.34482C16.3534 3.22364 14.1955 2.63928 12.0001 2.65482C5.80905 2.65482 2.28105 6.89282 0.729051 9.41882C0.249579 10.1943 -0.00439453 11.0881 -0.00439453 11.9998C-0.00439453 12.9116 0.249579 13.8053 0.729051 14.5808C1.63181 16.0591 2.77054 17.3796 4.10005 18.4898L1.30005 21.2898C1.20454 21.3821 1.12836 21.4924 1.07595 21.6144C1.02354 21.7364 0.995955 21.8676 0.994801 22.0004C0.993647 22.1332 1.01895 22.2649 1.06923 22.3878C1.11951 22.5107 1.19376 22.6223 1.28766 22.7162C1.38155 22.8101 1.4932 22.8844 1.6161 22.9346C1.73899 22.9849 1.87067 23.0102 2.00345 23.0091C2.13623 23.0079 2.26745 22.9803 2.38946 22.9279C2.51146 22.8755 2.6218 22.7993 2.71405 22.7038L5.76605 19.6518C7.65132 20.7728 9.80672 21.3582 12.0001 21.3448C18.1911 21.3448 21.7191 17.1068 23.2711 14.5808C23.7505 13.8053 24.0045 12.9116 24.0045 11.9998C24.0045 11.0881 23.7505 10.1943 23.2711 9.41882ZM2.43305 13.5338C2.14819 13.0729 1.9973 12.5417 1.9973 11.9998C1.9973 11.4579 2.14819 10.9268 2.43305 10.4658C3.76705 8.29982 6.78205 4.65482 12.0001 4.65482C13.6603 4.64552 15.2973 5.04566 16.7661 5.81982L14.7531 7.83282C13.793 7.19542 12.642 6.90981 11.4953 7.02446C10.3486 7.13911 9.27692 7.64696 8.46205 8.46182C7.64719 9.27668 7.13935 10.3484 7.0247 11.4951C6.91005 12.6417 7.19565 13.7928 7.83305 14.7528L5.52305 17.0628C4.29815 16.0725 3.25289 14.8788 2.43305 13.5338ZM15.0001 11.9998C15.0001 12.7955 14.684 13.5585 14.1214 14.1211C13.5588 14.6837 12.7957 14.9998 12.0001 14.9998C11.5546 14.9981 11.1152 14.8955 10.7151 14.6998L14.7001 10.7148C14.8958 11.115 14.9983 11.5543 15.0001 11.9998ZM9.00005 11.9998C9.00005 11.2042 9.31612 10.4411 9.87873 9.8785C10.4413 9.31589 11.2044 8.99982 12.0001 8.99982C12.4455 9.00154 12.8849 9.10411 13.2851 9.29982L9.30005 13.2848C9.10434 12.8846 9.00178 12.4453 9.00005 11.9998ZM21.5671 13.5338C20.2331 15.6998 17.2181 19.3448 12.0001 19.3448C10.3398 19.3541 8.70282 18.954 7.23405 18.1798L9.24705 16.1668C10.2071 16.8042 11.3581 17.0898 12.5048 16.9752C13.6515 16.8605 14.7232 16.3527 15.538 15.5378C16.3529 14.723 16.8608 13.6513 16.9754 12.5046C17.0901 11.3579 16.8044 10.2069 16.1671 9.24682L18.4771 6.93682C19.7019 7.9271 20.7472 9.12087 21.5671 10.4658C21.8519 10.9268 22.0028 11.4579 22.0028 11.9998C22.0028 12.5417 21.8519 13.0729 21.5671 13.5338Z" fill="#4B5563"/>
</g>
<defs>
<clipPath id="clip0_138_7493">
<rect width="24" height="24" fill="white"/>
</clipPath>
</defs>
</svg>
