<svg width="24" height="24" viewBox="0 0 24 24" fill="none" xmlns="http://www.w3.org/2000/svg">
<g clip-path="url(#clip0_170_7428)">
<path d="M23.2711 9.41886C21.7201 6.89286 18.1921 2.65486 12.0001 2.65486C5.80805 2.65486 2.28005 6.89286 0.729051 9.41886C0.249579 10.1944 -0.00439453 11.0881 -0.00439453 11.9999C-0.00439453 12.9116 0.249579 13.8054 0.729051 14.5809C2.28005 17.1069 5.80805 21.3449 12.0001 21.3449C18.1921 21.3449 21.7201 17.1069 23.2711 14.5809C23.7505 13.8054 24.0045 12.9116 24.0045 11.9999C24.0045 11.0881 23.7505 10.1944 23.2711 9.41886V9.41886ZM21.5661 13.5339C20.2341 15.6999 17.2191 19.3449 12.0001 19.3449C6.78105 19.3449 3.76605 15.6999 2.43405 13.5339C2.14919 13.0729 1.9983 12.5417 1.9983 11.9999C1.9983 11.458 2.14919 10.9268 2.43405 10.4659C3.76605 8.29986 6.78105 4.65486 12.0001 4.65486C17.2191 4.65486 20.2341 8.29586 21.5661 10.4659C21.8509 10.9268 22.0018 11.458 22.0018 11.9999C22.0018 12.5417 21.8509 13.0729 21.5661 13.5339V13.5339Z" fill="#4B5563"/>
<path d="M12 6.99985C11.0111 6.99985 10.0444 7.29309 9.22215 7.8425C8.39991 8.39191 7.75904 9.1728 7.3806 10.0864C7.00217 11.0001 6.90315 12.0054 7.09608 12.9753C7.289 13.9452 7.76521 14.8361 8.46447 15.5354C9.16373 16.2346 10.0546 16.7108 11.0246 16.9038C11.9945 17.0967 12.9998 16.9977 13.9134 16.6192C14.827 16.2408 15.6079 15.5999 16.1574 14.7777C16.7068 13.9555 17 12.9888 17 11.9998C16.9984 10.6743 16.4711 9.40341 15.5338 8.46607C14.5964 7.52873 13.3256 7.00144 12 6.99985V6.99985ZM12 14.9998C11.4067 14.9998 10.8266 14.8239 10.3333 14.4943C9.83994 14.1646 9.45543 13.6961 9.22836 13.1479C9.0013 12.5997 8.94189 11.9965 9.05765 11.4146C9.1734 10.8326 9.45912 10.2981 9.87868 9.87853C10.2982 9.45897 10.8328 9.17325 11.4147 9.05749C11.9967 8.94174 12.5999 9.00115 13.1481 9.22821C13.6962 9.45527 14.1648 9.83979 14.4944 10.3331C14.8241 10.8265 15 11.4065 15 11.9998C15 12.7955 14.6839 13.5586 14.1213 14.1212C13.5587 14.6838 12.7957 14.9998 12 14.9998Z" fill="#4B5563"/>
</g>
<defs>
<clipPath id="clip0_170_7428">
<rect width="24" height="24" fill="white"/>
</clipPath>
</defs>
</svg>
