<svg width="36" height="36" viewBox="0 0 36 36" fill="none" xmlns="http://www.w3.org/2000/svg">
<path d="M5.05505 19.6004H5.05837L2.58651 17.7932C1.93297 17.3153 1.44714 16.6432 1.19843 15.8728C0.949706 15.1024 0.950816 14.273 1.2016 13.5033C1.45238 12.7335 1.94 12.0627 2.59481 11.5866C3.24946 11.1107 4.03773 10.8537 4.84709 10.8524C4.8473 10.8524 4.84751 10.8524 4.84773 10.8524L11.3998 10.8524H12.1292L12.352 10.1579L14.3425 3.95392L14.3426 3.95365C14.5909 3.17884 15.0789 2.50292 15.7362 2.02336C16.3935 1.54381 17.1862 1.2854 17.9998 1.2854C18.8134 1.2854 19.6061 1.54381 20.2634 2.02336C20.9207 2.50292 21.4087 3.17884 21.657 3.95365L21.6571 3.95392L23.6476 10.1579L23.8704 10.8524H24.5998L31.1579 10.8524C31.1581 10.8524 31.1583 10.8524 31.1585 10.8524C31.9679 10.8537 32.7561 11.1107 33.4108 11.5866C34.0656 12.0627 34.5532 12.7335 34.804 13.5033C35.0548 14.273 35.0559 15.1024 34.8072 15.8728C34.5585 16.6431 34.0728 17.3151 33.4195 17.7929C33.4194 17.793 33.4192 17.7931 33.4191 17.7932L28.0795 21.6929L27.4954 22.1194L27.7177 22.8077L29.7457 29.0882C29.9953 29.8612 29.9933 30.6935 29.7401 31.4654C29.4868 32.2373 28.9953 32.909 28.3363 33.3839C27.6772 33.8588 26.8846 34.1126 26.0722 34.1086C25.2599 34.1047 24.4697 33.8432 23.8153 33.3619L23.815 33.3616L18.592 29.5231L17.9994 29.0876L17.407 29.5235L12.1855 33.3665L12.1855 33.3665L12.1762 33.3735C11.5282 33.8621 10.7396 34.1283 9.92803 34.1323C9.11643 34.1364 8.32523 33.8781 7.67234 33.396L7.66302 33.3891L7.65353 33.3824C6.98921 32.9153 6.49365 32.2459 6.24074 31.4741C5.98783 30.7024 5.99111 29.8696 6.25009 29.0998L6.25016 29.0998L6.25392 29.0882L8.28192 22.8077L8.50416 22.1194L7.92009 21.6929L5.05505 19.6004Z" stroke="#9CA3AF" stroke-width="2"/>
</svg>
