<svg width="36" height="36" viewBox="0 0 36 36" fill="none" xmlns="http://www.w3.org/2000/svg">
<path d="M1.9903 18.6004L7.3303 22.5004L5.3023 28.7809C4.97457 29.755 4.97042 30.8089 5.29047 31.7856C5.61051 32.7622 6.23762 33.6092 7.0783 34.2004C7.90458 34.8106 8.90589 35.1375 9.93303 35.1323C10.9602 35.1272 11.9582 34.7903 12.7783 34.1719L17.9998 30.3289L23.2228 34.1674C24.0476 34.7741 25.0435 35.1036 26.0674 35.1086C27.0912 35.1136 28.0903 34.7938 28.921 34.1952C29.7516 33.5966 30.371 32.75 30.6902 31.7771C31.0094 30.8043 31.0119 29.7553 30.6973 28.7809L28.6693 22.5004L34.0093 18.6004C34.833 17.9982 35.4453 17.151 35.7588 16.18C36.0723 15.209 36.0709 14.1637 35.7548 13.1935C35.4387 12.2233 34.8242 11.3778 33.9988 10.7778C33.1735 10.1777 32.1797 9.85387 31.1593 9.85242H24.5998L22.6093 3.64842C22.2963 2.67186 21.6812 1.81994 20.8528 1.21552C20.0243 0.611095 19.0253 0.2854 17.9998 0.2854C16.9743 0.2854 15.9753 0.611095 15.1468 1.21552C14.3184 1.81994 13.7033 2.67186 13.3903 3.64842L11.3998 9.85242H4.8463C3.82592 9.85387 2.83209 10.1777 2.00677 10.7778C1.18145 11.3778 0.566862 12.2233 0.250783 13.1935C-0.0652958 14.1637 -0.0666948 15.209 0.246786 16.18C0.560267 17.151 1.17259 17.9982 1.9963 18.6004H1.9903Z" fill="#FBBF24"/>
</svg>
