<svg width="24" height="24" viewBox="0 0 24 24" fill="none" xmlns="http://www.w3.org/2000/svg">
<path d="M1.3267 12.4003L4.8867 15.0003L3.53471 19.1873C3.31622 19.8367 3.31345 20.5393 3.52681 21.1904C3.74018 21.8415 4.15825 22.4062 4.7187 22.8003C5.26956 23.2071 5.9371 23.425 6.62186 23.4216C7.30662 23.4182 7.97195 23.1936 8.51871 22.7813L11.9997 20.2193L15.4817 22.7783C16.0316 23.1828 16.6955 23.4024 17.3781 23.4058C18.0607 23.4091 18.7267 23.1959 19.2805 22.7968C19.8342 22.3977 20.2472 21.8333 20.46 21.1848C20.6728 20.5362 20.6744 19.8369 20.4647 19.1873L19.1127 15.0003L22.6727 12.4003C23.2218 11.9988 23.6301 11.4341 23.8391 10.7867C24.048 10.1393 24.0471 9.44249 23.8364 8.79569C23.6257 8.1489 23.2159 7.58523 22.6657 7.18521C22.1155 6.78519 21.453 6.56927 20.7727 6.56831H16.3997L15.0727 2.43231C14.864 1.78126 14.454 1.21332 13.9017 0.810371C13.3494 0.407422 12.6834 0.190292 11.9997 0.190292C11.316 0.190292 10.65 0.407422 10.0977 0.810371C9.54544 1.21332 9.13538 1.78126 8.92671 2.43231L7.59971 6.56831H3.23071C2.55045 6.56927 1.8879 6.78519 1.33768 7.18521C0.787473 7.58523 0.377745 8.1489 0.167026 8.79569C-0.0436933 9.44249 -0.044626 10.1393 0.164361 10.7867C0.373348 11.4341 0.781566 11.9988 1.3307 12.4003H1.3267Z" fill="#FBBF24"/>
</svg>
