<svg width="24" height="24" viewBox="0 0 24 24" fill="none" xmlns="http://www.w3.org/2000/svg">
<g clip-path="url(#clip0_138_7482)">
<path d="M11.0068 2.57813L10.9998 18.0161C10.9998 18.2813 11.1052 18.5357 11.2927 18.7232C11.4802 18.9108 11.7346 19.0161 11.9998 19.0161C12.265 19.0161 12.5194 18.9108 12.7069 18.7232C12.8945 18.5357 12.9998 18.2813 12.9998 18.0161L13.0068 2.59513L15.9188 5.50813C16.1063 5.6956 16.3606 5.80092 16.6258 5.80092C16.891 5.80092 17.1453 5.6956 17.3328 5.50813C17.5203 5.3206 17.6256 5.0663 17.6256 4.80113C17.6256 4.53597 17.5203 4.28166 17.3328 4.09413L14.1218 0.879131C13.8432 0.600351 13.5124 0.379201 13.1483 0.228317C12.7842 0.0774321 12.3939 -0.000228882 11.9998 -0.000228882C11.6057 -0.000228882 11.2154 0.0774321 10.8513 0.228317C10.4872 0.379201 10.1564 0.600351 9.87781 0.879131L6.66681 4.09113C6.47934 4.27866 6.37402 4.53297 6.37402 4.79813C6.37402 5.06329 6.47934 5.3176 6.66681 5.50513C6.85434 5.6926 7.10865 5.79792 7.37381 5.79792C7.63897 5.79792 7.89328 5.6926 8.08081 5.50513L11.0068 2.57813Z" fill="#4B5563"/>
<path d="M22 16.9994V20.9994C22 21.2646 21.8946 21.519 21.7071 21.7065C21.5196 21.894 21.2652 21.9994 21 21.9994H3C2.73478 21.9994 2.48043 21.894 2.29289 21.7065C2.10536 21.519 2 21.2646 2 20.9994V16.9994C2 16.7342 1.89464 16.4798 1.70711 16.2923C1.51957 16.1047 1.26522 15.9994 1 15.9994C0.734784 15.9994 0.48043 16.1047 0.292893 16.2923C0.105357 16.4798 0 16.7342 0 16.9994L0 20.9994C0 21.795 0.31607 22.5581 0.87868 23.1207C1.44129 23.6833 2.20435 23.9994 3 23.9994H21C21.7956 23.9994 22.5587 23.6833 23.1213 23.1207C23.6839 22.5581 24 21.795 24 20.9994V16.9994C24 16.7342 23.8946 16.4798 23.7071 16.2923C23.5196 16.1047 23.2652 15.9994 23 15.9994C22.7348 15.9994 22.4804 16.1047 22.2929 16.2923C22.1054 16.4798 22 16.7342 22 16.9994Z" fill="#4B5563"/>
</g>
<defs>
<clipPath id="clip0_138_7482">
<rect width="24" height="24" fill="white"/>
</clipPath>
</defs>
</svg>
