<svg width="251" height="251" viewBox="0 0 251 251" fill="none" xmlns="http://www.w3.org/2000/svg">
<circle cx="125.5" cy="125.5" r="125.5" fill="#E53535"/>
<path fill-rule="evenodd" clip-rule="evenodd" d="M124.711 132.911L118.915 121.54C108.632 111.934 94.8584 108.631 67.67 107.138C66.2189 107.059 64.9961 108.219 65 109.672L65.2067 185.834C65.2103 187.174 66.2607 188.28 67.5985 188.365C92.9468 189.964 106.404 192.395 120.634 202.775C122.373 204.043 124.901 202.842 124.895 200.69L124.711 132.911Z" fill="white"/>
<path fill-rule="evenodd" clip-rule="evenodd" d="M133.449 132.91L139.229 121.541C149.483 111.935 163.218 108.632 190.33 107.139C191.781 107.059 193.004 108.219 193 109.673L192.794 185.834C192.79 187.175 191.74 188.281 190.403 188.365C165.135 189.964 151.715 192.394 137.53 202.764C135.791 204.035 133.26 202.835 133.266 200.681L133.449 132.91Z" fill="white"/>
<path fill-rule="evenodd" clip-rule="evenodd" d="M101.384 80.266C94.7964 81.9014 87.9838 78.5341 85.702 72.2648C83.2537 65.5381 86.9486 58.0178 93.9548 55.4678C94.8906 55.1272 95.8383 54.8924 96.7836 54.7575C95.8654 47.3102 100.377 39.8476 108.01 37.0695C115.584 34.3127 123.77 37.0652 127.885 43.2594C128.451 42.9604 129.044 42.6963 129.663 42.471C136.669 39.9209 144.334 43.3067 146.782 50.0334C149.064 56.3027 146.009 63.2613 139.912 66.2431L140.597 68.1264C133.684 68.0829 127.755 69.2031 121.981 71.6489C115.596 74.3531 109.604 78.5989 102.819 84.2073L101.384 80.266ZM105.244 92.6161C106.664 103.728 116.171 112.303 127.664 112.272C140.114 112.239 150.18 102.119 150.147 89.6683C150.134 84.6972 148.512 80.1063 145.777 76.3865C137.213 75.6276 130.982 76.5243 125.101 79.0153C119.051 81.5776 113.104 85.9325 105.244 92.6161Z" fill="white"/>
</svg>
