<svg width="541" height="160" viewBox="0 0 541 160" fill="none" xmlns="http://www.w3.org/2000/svg">
<path fill-rule="evenodd" clip-rule="evenodd" d="M71.3317 81.4054L67.7266 74.3335C61.3323 68.3602 52.7677 66.3065 35.8615 65.3785C34.9591 65.329 34.1987 66.0504 34.2012 66.9541L34.3297 114.314C34.332 115.148 34.9851 115.836 35.817 115.888C51.5796 116.883 59.9479 118.394 68.7966 124.849C69.8777 125.638 71.4497 124.891 71.446 123.553L71.3317 81.4054Z" fill="#E53535"/>
<path fill-rule="evenodd" clip-rule="evenodd" d="M76.7657 81.4048L80.3603 74.3344C86.737 68.3611 95.2778 66.3071 112.136 65.3789C113.039 65.3293 113.799 66.0507 113.797 66.9545L113.669 114.315C113.666 115.148 113.013 115.836 112.182 115.889C96.4691 116.883 88.124 118.394 79.3031 124.842C78.222 125.633 76.648 124.886 76.6516 123.547L76.7657 81.4048Z" fill="#E53535"/>
<path fill-rule="evenodd" clip-rule="evenodd" d="M56.8264 48.6688C52.7298 49.6858 48.4935 47.5919 47.0746 43.6934C45.5521 39.5105 47.8497 34.8341 52.2065 33.2484C52.7884 33.0365 53.3777 32.8906 53.9656 32.8067C53.3946 28.1757 56.2002 23.5351 60.9466 21.8076C65.6567 20.0933 70.7467 21.8049 73.3058 25.6567C73.6574 25.4708 74.0263 25.3066 74.4112 25.1664C78.768 23.5807 83.534 25.6862 85.0565 29.8691C86.4754 33.7675 84.5761 38.0947 80.7842 39.9489L81.2105 41.12C76.9113 41.0929 73.2247 41.7895 69.634 43.3104C65.664 44.992 61.9379 47.6321 57.7185 51.1197L56.8264 48.6688ZM59.2264 56.3485C60.1098 63.2584 66.0217 68.5905 73.1683 68.5714C80.9104 68.5507 87.1698 62.2577 87.1491 54.5156C87.1408 51.4244 86.1326 48.5695 84.4315 46.2564C79.1064 45.7845 75.2313 46.3421 71.5743 47.8911C67.8125 49.4845 64.1142 52.1925 59.2264 56.3485Z" fill="#E53535"/>
<path d="M142.413 102.151C142.413 106.583 144.301 108.799 148.077 108.799C151.087 108.799 153.522 107.377 155.383 104.531C157.298 101.686 158.255 98.0466 158.255 93.6141C158.255 89.1817 157.435 85.7889 155.793 83.4359C154.151 81.0281 152.181 79.8242 149.883 79.8242C148.406 79.8242 146.983 80.3167 145.615 81.3017C144.301 82.232 143.234 83.5179 142.413 85.1596V102.151ZM142.413 60.2885V76.4588C145.314 72.8472 149.172 71.0414 153.987 71.0414C158.857 71.0414 162.934 72.9019 166.217 76.623C169.556 80.3441 171.225 85.3785 171.225 91.7262C171.225 99.2231 169.008 105.106 164.576 109.374C160.143 113.642 154.398 115.776 147.338 115.776C141.483 115.776 137.051 114.791 134.041 112.821C131.031 110.797 129.526 107.24 129.526 102.151V59.796C129.526 57.0599 128.596 55.1173 126.736 53.9682C128.815 51.6698 131.332 50.5207 134.287 50.5207C139.705 50.5207 142.413 53.7766 142.413 60.2885ZM214.433 80.8092V106.419C214.433 109.374 215.308 111.317 217.059 112.247C215.089 114.6 212.6 115.776 209.59 115.776C205.157 115.776 202.558 113.56 201.792 109.128C199.001 113.56 195.116 115.776 190.136 115.776C185.211 115.776 181.381 114.518 178.645 112.001C175.909 109.483 174.541 105.817 174.541 101.002V80.3167C174.541 77.4712 173.61 75.5559 171.75 74.5709C173.829 72.2179 176.292 71.0414 179.137 71.0414C182.037 71.0414 184.144 71.8348 185.458 73.4218C186.771 75.0087 187.428 77.4712 187.428 80.8092V99.6883C187.428 103.902 189.562 106.009 193.83 106.009C197.496 106.009 200.068 103.929 201.546 99.7703V80.3167C201.546 77.4712 200.615 75.5559 198.755 74.5709C200.834 72.2179 203.297 71.0414 206.142 71.0414C209.043 71.0414 211.149 71.8348 212.463 73.4218C213.776 75.0087 214.433 77.4712 214.433 80.8092ZM234.686 60.2885V87.9504C244.864 83.1896 249.953 77.5533 249.953 71.0414C253.62 71.0414 256.575 71.7801 258.818 73.2576C261.062 74.7351 262.184 76.8145 262.184 79.4959C262.184 82.1225 260.679 84.4482 257.669 86.4729C254.714 88.4976 250.036 90.4676 243.633 92.3829C248.941 97.7456 252.881 101.166 255.453 102.643C258.025 104.121 260.898 104.859 264.072 104.859C264.072 108.307 263.251 110.988 261.609 112.904C259.968 114.819 257.697 115.776 254.796 115.776C251.896 115.776 248.914 114.326 245.849 111.426C242.84 108.471 239.119 103.409 234.686 96.2408V106.419C234.686 109.374 235.589 111.317 237.395 112.247C235.315 114.6 232.798 115.776 229.843 115.776C224.48 115.776 221.799 112.521 221.799 106.009V59.796C221.799 57.0599 220.869 55.1173 219.008 53.9682C221.088 51.6698 223.605 50.5207 226.56 50.5207C231.977 50.5207 234.686 53.7766 234.686 60.2885ZM279.973 103.628C279.973 106.31 281.505 107.65 284.569 107.65C286.813 107.65 288.838 106.611 290.643 104.531V96.5691C283.53 96.9522 279.973 99.3052 279.973 103.628ZM303.53 85.8163V104.449C303.53 107.897 305.008 110.085 307.963 111.016C306.978 112.384 305.637 113.533 303.941 114.463C302.299 115.339 300.548 115.776 298.688 115.776C294.638 115.776 292.121 113.971 291.136 110.359C287.743 113.971 283.502 115.776 278.413 115.776C274.637 115.776 271.628 114.846 269.384 112.986C267.14 111.125 266.019 108.498 266.019 105.106C266.019 100.947 268.18 97.6362 272.503 95.1737C276.881 92.6565 282.928 91.3432 290.643 91.2337V83.4359C290.643 79.7695 289.166 77.9363 286.211 77.9363C285.007 77.9363 283.995 78.3194 283.174 79.0855C282.408 79.7969 282.025 80.7819 282.025 82.0405C282.025 83.2443 282.462 84.3661 283.338 85.4059C281.477 87.3758 279.124 88.3608 276.279 88.3608C273.488 88.3608 271.409 87.7315 270.041 86.4729C268.727 85.2143 268.071 83.5727 268.071 81.548C268.071 78.4835 269.931 75.9663 273.652 73.9963C277.428 72.0264 281.806 71.0414 286.786 71.0414C291.82 71.0414 295.869 72.2179 298.934 74.5709C301.998 76.924 303.53 80.6724 303.53 85.8163ZM310.945 106.009V80.3167C310.945 77.4712 310.015 75.5559 308.155 74.5709C310.234 72.2179 312.751 71.0414 315.706 71.0414C320.576 71.0414 323.258 73.668 323.75 78.9213C325.939 73.668 329.578 71.0414 334.667 71.0414C337.239 71.0414 339.346 71.8075 340.988 73.3397C342.684 74.8719 343.532 76.924 343.532 79.4959C343.532 82.0678 342.876 84.1199 341.562 85.6521C340.304 87.1296 338.361 87.8683 335.734 87.8683C335.406 87.8683 334.695 87.8136 333.6 87.7042C333.819 86.7192 333.929 86.0899 333.929 85.8163C333.929 84.4482 333.518 83.3811 332.697 82.615C331.931 81.7942 330.974 81.3838 329.824 81.3838C326.869 81.3838 324.872 83.6274 323.832 88.1146V106.419C323.832 109.374 324.735 111.317 326.541 112.247C324.462 114.6 321.945 115.776 318.99 115.776C313.627 115.776 310.945 112.521 310.945 106.009ZM365.708 87.7042C366.693 87.5947 367.432 87.2938 367.924 86.8013C368.417 86.254 368.663 85.2417 368.663 83.7642C368.663 82.2867 368.225 80.946 367.35 79.7421C366.529 78.4835 365.38 77.8542 363.902 77.8542C362.425 77.8542 361.029 78.7845 359.716 80.6451C358.403 82.5056 357.527 85.2143 357.089 88.7712L365.708 87.7042ZM367.103 106.829C371.645 106.829 375.449 105.106 378.513 101.658C379.772 102.205 380.401 103.355 380.401 105.106C380.401 107.732 378.841 110.167 375.722 112.411C372.603 114.655 368.937 115.776 364.723 115.776C358.211 115.776 353.122 113.998 349.456 110.441C345.844 106.884 344.038 101.795 344.038 95.1737C344.038 88.4976 346.036 82.8066 350.03 78.1005C354.025 73.3944 359.087 71.0414 365.216 71.0414C369.922 71.0414 373.807 72.5736 376.871 75.638C379.936 78.6477 381.468 82.0952 381.468 85.9804C381.468 88.9901 380.757 91.1516 379.334 92.465C377.911 93.7783 375.476 94.4897 372.028 94.5991L356.843 95.0095C357.226 102.889 360.646 106.829 367.103 106.829ZM417.845 80.3167C417.845 82.1225 417.326 83.5179 416.286 84.5029C415.246 85.4879 413.769 85.9804 411.853 85.9804C409.938 85.9804 408.105 85.3238 406.354 84.0104C407.065 81.7668 406.737 80.0705 405.369 78.9213C404.493 78.2099 403.289 77.8542 401.757 77.8542C400.28 77.8542 399.076 78.1826 398.146 78.8392C397.27 79.4412 396.832 80.3714 396.832 81.63C396.832 82.8886 397.626 84.0925 399.213 85.2417C400.8 86.3361 402.715 87.3758 404.958 88.3608C407.202 89.2911 409.446 90.3308 411.689 91.48C413.933 92.5744 415.848 94.0245 417.435 95.8304C419.022 97.6362 419.815 99.6883 419.815 101.987C419.815 106.036 417.927 109.347 414.152 111.919C410.376 114.491 405.834 115.776 400.526 115.776C395.273 115.776 390.868 114.819 387.311 112.904C383.699 110.879 381.893 108.362 381.893 105.352C381.893 103.546 382.577 102.069 383.945 100.919C385.313 99.7156 386.955 99.1137 388.87 99.1137C391.88 99.1137 394.014 100.044 395.273 101.904C394.342 102.671 393.877 103.683 393.877 104.942C393.877 106.2 394.479 107.185 395.683 107.897C396.887 108.553 398.474 108.882 400.444 108.882C402.414 108.882 403.973 108.498 405.123 107.732C406.326 106.912 406.928 105.872 406.928 104.613C406.928 103.355 406.135 102.178 404.548 101.084C402.961 99.9892 401.046 98.9495 398.802 97.9645C396.559 96.9795 394.315 95.9124 392.071 94.7633C389.828 93.6141 387.913 92.1366 386.326 90.3308C384.739 88.4703 383.945 86.4182 383.945 84.1746C383.945 80.6177 385.669 77.5533 389.116 74.9813C392.564 72.3547 396.641 71.0414 401.347 71.0414C406.108 71.0414 410.048 71.9169 413.167 73.668C416.286 75.4191 417.845 77.6353 417.845 80.3167ZM442.911 87.7042C443.896 87.5947 444.635 87.2938 445.127 86.8013C445.62 86.254 445.866 85.2417 445.866 83.7642C445.866 82.2867 445.428 80.946 444.552 79.7421C443.732 78.4835 442.582 77.8542 441.105 77.8542C439.627 77.8542 438.232 78.7845 436.919 80.6451C435.605 82.5056 434.73 85.2143 434.292 88.7712L442.911 87.7042ZM444.306 106.829C448.848 106.829 452.651 105.106 455.716 101.658C456.974 102.205 457.604 103.355 457.604 105.106C457.604 107.732 456.044 110.167 452.925 112.411C449.806 114.655 446.139 115.776 441.926 115.776C435.414 115.776 430.325 113.998 426.658 110.441C423.047 106.884 421.241 101.795 421.241 95.1737C421.241 88.4976 423.238 82.8066 427.233 78.1005C431.228 73.3944 436.289 71.0414 442.418 71.0414C447.124 71.0414 451.01 72.5736 454.074 75.638C457.138 78.6477 458.671 82.0952 458.671 85.9804C458.671 88.9901 457.959 91.1516 456.537 92.465C455.114 93.7783 452.679 94.4897 449.231 94.5991L434.046 95.0095C434.429 102.889 437.849 106.829 444.306 106.829ZM482.982 108.307C485.171 108.307 487.113 106.912 488.81 104.121C490.506 101.33 491.354 97.773 491.354 93.45C491.354 89.1269 490.534 85.7889 488.892 83.4359C487.25 81.0281 485.28 79.8242 482.982 79.8242C481.504 79.8242 480.082 80.3167 478.714 81.3017C477.4 82.232 476.333 83.5179 475.512 85.1596V104.531C477.537 107.048 480.027 108.307 482.982 108.307ZM462.625 127.104V80.3167C462.625 77.4712 461.695 75.5286 459.835 74.4888C461.914 72.1905 464.431 71.0414 467.386 71.0414C471.709 71.0414 474.281 73.0114 475.102 76.9513C478.057 73.0114 482.024 71.0414 487.004 71.0414C491.984 71.0414 496.115 73.0114 499.398 76.9513C502.682 80.8366 504.323 86.2814 504.323 93.2858C504.323 100.29 502.353 105.79 498.413 109.784C494.474 113.779 489.932 115.776 484.788 115.776C481.395 115.776 478.303 114.819 475.512 112.904V127.514C475.512 130.415 476.415 132.33 478.221 133.26C476.196 135.668 473.679 136.872 470.669 136.872C465.307 136.872 462.625 133.616 462.625 127.104Z" fill="#E53535"/>
</svg>
